<svg id="Слой_1" data-name="Слой 1" xmlns="http://www.w3.org/2000/svg" xmlns:xlink="http://www.w3.org/1999/xlink" viewBox="0 0 499 499"><defs><linearGradient id="Безымянный_градиент" x1="-81.32" y1="771.23" x2="595.41" y2="-291.93" gradientTransform="matrix(1, 0, 0, -1, 0, 501)" gradientUnits="userSpaceOnUse"><stop offset="0" stop-color="#c0d7e9"/><stop offset="1" stop-color="#48576f"/></linearGradient></defs><rect x="0.52" y="0.52" width="497.96" height="497.96" rx="98.6" style="fill:url(#Безымянный_градиент)"/><path d="M318.47,127.66c5.15,1.24,10.43,2.06,15.41,3.77,25,8.61,41,36.13,36.79,62.2A59.44,59.44,0,0,1,353.45,227q-25.68,25.62-51.33,51.29c-14.56,14.49-32.07,20.24-52.34,16.76a55.26,55.26,0,0,1-30-15.81,8.81,8.81,0,0,1,12.11-12.78c4.52,4.08,9.33,7.66,15.16,9.55,15.75,5.1,29.88,2.1,41.7-9.47q26.85-26.3,53.16-53.16c19.8-20.27,13.71-53.24-12.06-64.49-15.28-6.66-30.14-4.61-42.51,6.72-12.92,11.83-24.95,24.61-37.37,37-1.63,1.62-3.22,3.28-4.89,4.87-3.93,3.75-9.2,3.85-12.78.29s-3.56-8.9.26-12.77c7.28-7.42,14.65-14.73,22-22.06,6.85-6.83,13.61-13.76,20.66-20.38,8.89-8.33,19.61-12.93,31.67-14.45.7-.09,1.39-.3,2.08-.46Z" style="fill:#fff"/><path d="M127.65,309c1-4.62,1.8-9.33,3.19-13.84,2.71-8.81,7.77-16.24,14.25-22.73q24.39-24.42,48.79-48.8c12.87-12.83,28.45-18.76,46.55-17.31a55.88,55.88,0,0,1,35.5,16.45,8.82,8.82,0,0,1,.35,12.43,8.58,8.58,0,0,1-12.38.42c-5.72-5.26-12.09-9.25-19.76-10.81-14.25-2.9-26.78.62-37.14,10.84q-25.06,24.74-49.79,49.8c-20,20.36-14,53.31,11.9,64.66,15.29,6.71,30.13,4.57,42.52-6.71s23.62-23.25,35.34-35c2.37-2.37,5-3.85,8.46-3.35a8.8,8.8,0,0,1,6.05,13.65,10,10,0,0,1-1.2,1.47c-12.37,12.3-24.41,25-37.23,36.78-13,11.95-28.89,16.33-46.29,13.63-24.6-3.82-42.2-20.61-47.81-44.86-.55-2.38-.87-4.81-1.3-7.22Z" style="fill:#fff"/></svg>